<?xml version="1.0" encoding="UTF-8" standalone="no"?>
<!-- Created with Inkscape (http://www.inkscape.org/) -->

<svg
   version="1.1"
   id="svg1"
   width="75.587868"
   height="75.585999"
   viewBox="0 0 75.587868 75.585999"
   sodipodi:docname="RotboticDub_LOGO.ai"
   inkscape:version="1.4.3 (0d15f75042, 2025-12-25)"
   xmlns:inkscape="http://www.inkscape.org/namespaces/inkscape"
   xmlns:sodipodi="http://sodipodi.sourceforge.net/DTD/sodipodi-0.dtd"
   xmlns="http://www.w3.org/2000/svg"
   xmlns:svg="http://www.w3.org/2000/svg">
  <defs
     id="defs1" />
  <sodipodi:namedview
     id="namedview1"
     pagecolor="#ffffff"
     bordercolor="#000000"
     borderopacity="0.25"
     inkscape:showpageshadow="2"
     inkscape:pageopacity="0.0"
     inkscape:pagecheckerboard="0"
     inkscape:deskcolor="#d1d1d1"
     inkscape:zoom="10.90149"
     inkscape:cx="37.838864"
     inkscape:cy="37.792999"
     inkscape:window-width="1920"
     inkscape:window-height="1019"
     inkscape:window-x="0"
     inkscape:window-y="0"
     inkscape:window-maximized="1"
     inkscape:current-layer="layer-MC0">
    <inkscape:page
       x="0"
       y="0"
       inkscape:label="1"
       id="page1"
       width="75.587868"
       height="75.585999"
       margin="2.0455732 1.6068 12.929733 7.4876266"
       bleed="0" />
  </sodipodi:namedview>
  <g
     id="layer-MC0"
     inkscape:groupmode="layer"
     inkscape:label="Layer 1">
    <path
       id="path1"
       d="m 0,0 c -0.459,-0.652 -0.876,-1.327 -1.252,-2.023 -0.019,-0.036 -0.014,-0.041 0.019,-0.016 0.157,0.122 0.309,0.253 0.46,0.393 0.189,0.178 0.319,0.348 0.39,0.512 0.162,0.371 0.295,0.747 0.399,1.126 C 0.024,0.024 0.02,0.027 0,0 m -12.924,0.98 c -0.549,-0.643 -0.95,-1.369 -1.204,-2.177 -0.058,-0.184 -0.089,-0.297 -0.096,-0.341 -0.019,-0.121 -0.008,-0.241 0.034,-0.359 0.018,-0.051 0.044,-0.056 0.079,-0.014 0.17,0.21 0.33,0.426 0.479,0.648 0.127,0.189 0.263,0.42 0.409,0.695 0.379,0.711 0.723,1.43 1.033,2.16 0.022,0.054 0.009,0.064 -0.04,0.035 -0.138,-0.084 -0.264,-0.182 -0.377,-0.293 -0.063,-0.062 -0.169,-0.18 -0.317,-0.354 m 9.719,0.894 c 0.023,0.086 0.055,0.166 0.094,0.243 0.357,0.689 0.703,1.385 1.033,2.088 0.146,0.31 0.308,0.633 0.49,0.969 0.277,0.514 0.541,1.034 0.792,1.56 0.068,0.144 0.143,0.284 0.223,0.419 0.11,0.187 0.206,0.377 0.284,0.572 0.012,0.026 0.029,0.048 0.053,0.065 0.09,0.063 0.162,0.126 0.216,0.19 C 0.088,8.108 0.146,8.174 0.15,8.178 0.197,8.215 0.248,8.245 0.304,8.269 0.359,8.293 0.413,8.318 0.463,8.345 0.615,8.426 0.781,8.446 0.961,8.406 1.252,8.342 1.453,8.17 1.562,7.892 1.624,7.732 1.632,7.581 1.584,7.437 1.553,7.34 1.537,7.289 1.535,7.283 1.512,7.202 1.484,7.122 1.451,7.044 1.195,6.433 0.944,5.819 0.7,5.203 0.601,4.951 0.533,4.751 0.5,4.603 0.488,4.555 0.506,4.523 0.552,4.508 0.308,3.867 0.068,3.225 -0.166,2.58 -0.174,2.558 -0.174,2.543 -0.168,2.535 -0.158,2.525 -0.139,2.533 -0.125,2.551 0.023,2.747 0.216,2.884 0.452,2.96 0.572,2.998 0.689,2.986 0.803,2.926 0.861,2.894 0.92,2.894 0.979,2.923 1.09,2.979 1.211,3.01 1.345,3.017 1.362,3.018 1.38,3.014 1.395,3.004 1.676,2.829 1.834,2.569 1.872,2.227 1.878,2.172 1.859,2.119 1.823,2.084 L 1.636,1.904 C 1.57,1.842 1.572,1.784 1.642,1.731 L 1.899,1.533 C 1.914,1.522 1.922,1.507 1.922,1.49 1.926,1.3 1.904,1.115 1.86,0.937 1.842,0.866 1.859,0.857 1.91,0.909 L 2.807,1.826 C 2.828,1.848 2.864,1.838 2.873,1.809 l 4.777,-16.61 c 0.014,-0.052 0.069,-0.083 0.121,-0.07 0.105,0.025 0.212,0.057 0.322,0.094 0.134,0.045 0.253,0.024 0.359,-0.062 0.138,-0.112 0.197,-0.242 0.179,-0.391 -0.011,-0.098 -0.072,-0.21 -0.183,-0.339 -0.111,-0.129 -0.214,-0.233 -0.309,-0.31 -0.05,-0.041 -0.114,-0.071 -0.192,-0.092 -0.099,-0.026 -0.168,-0.04 -0.207,-0.042 -0.09,-0.003 -0.146,0.046 -0.17,0.146 -0.013,0.054 -0.019,0.081 -0.02,0.083 C 5.929,-10.396 4.31,-5.007 2.693,0.383 2.689,0.394 2.675,0.397 2.666,0.389 2.353,0.072 2.041,-0.246 1.731,-0.566 1.547,-0.757 1.402,-0.908 1.299,-1.021 1.209,-1.117 1.119,-1.245 1.025,-1.404 0.834,-1.733 0.623,-2.021 0.395,-2.27 c -0.239,-0.256 -0.539,-0.45 -0.9,-0.581 -0.093,-0.033 -0.268,-0.057 -0.529,-0.073 -0.13,-0.008 -0.226,0.008 -0.288,0.048 -0.098,0.063 -0.139,0.167 -0.123,0.31 0.002,0.024 0.004,0.044 0.004,0.056 -0.004,0.1 -0.028,0.106 -0.073,0.017 -0.213,-0.421 -0.412,-0.847 -0.597,-1.279 -0.078,-0.181 -0.148,-0.296 -0.207,-0.345 -0.086,-0.071 -0.188,-0.099 -0.305,-0.083 -0.102,0.012 -0.191,0.054 -0.27,0.123 -0.137,0.124 -0.193,0.293 -0.166,0.508 0.03,0.236 0.074,0.47 0.131,0.702 0.105,0.42 0.157,0.633 0.158,0.636 0.286,1.295 0.588,2.586 0.905,3.875 0.074,0.301 0.16,0.599 0.256,0.894 0.002,0.008 0.006,0.017 0.012,0.028 0.013,0.024 0.011,0.035 -0.006,0.035 C -1.613,2.6 -1.625,2.593 -1.632,2.58 -1.791,2.334 -1.956,2.091 -2.125,1.852 -2.167,1.792 -2.164,1.728 -2.117,1.656 -2.078,1.599 -2.09,1.555 -2.154,1.523 -2.245,1.48 -2.328,1.418 -2.402,1.339 -2.448,1.289 -2.506,1.205 -2.574,1.086 -2.914,0.497 -3.258,-0.091 -3.603,-0.678 -3.814,-1.039 -4.042,-1.391 -4.284,-1.732 -4.422,-1.927 -4.578,-2.106 -4.751,-2.27 c -0.151,-0.143 -0.325,-0.238 -0.52,-0.286 -0.082,-0.019 -0.16,-0.011 -0.235,0.023 -0.271,0.126 -0.447,0.341 -0.53,0.645 -0.03,0.113 -0.055,0.227 -0.076,0.342 -0.006,0.035 -0.019,0.037 -0.038,0.007 -0.194,-0.305 -0.397,-0.603 -0.61,-0.896 -0.301,-0.413 -0.527,-0.694 -0.679,-0.842 -0.27,-0.265 -0.586,-0.481 -0.949,-0.647 -0.063,-0.029 -0.127,-0.029 -0.19,10e-4 -0.364,0.175 -0.598,0.449 -0.7,0.825 -0.018,0.068 -0.049,0.135 -0.092,0.202 -0.058,0.09 -0.091,0.155 -0.1,0.194 -0.032,0.135 -0.014,0.276 0.056,0.426 0.091,0.193 0.177,0.457 0.256,0.79 0.005,0.016 0.004,0.03 0,0.043 -0.011,0.03 -0.031,0.021 -0.06,-0.028 -0.165,-0.278 -0.328,-0.555 -0.491,-0.835 -0.413,-0.705 -0.867,-1.382 -1.365,-2.03 -0.054,-0.071 -0.121,-0.12 -0.201,-0.147 -0.073,-0.025 -0.152,-0.026 -0.236,-0.001 -0.174,0.049 -0.28,0.17 -0.316,0.358 -0.096,0.494 -0.124,1.033 -0.085,1.615 0.081,1.215 0.235,2.42 0.461,3.616 0.003,0.017 -0.003,0.033 -0.014,0.035 -0.009,0.001 -0.018,-0.006 -0.026,-0.023 -0.436,-0.907 -0.923,-1.787 -1.459,-2.639 -0.234,-0.373 -0.492,-0.694 -0.774,-0.965 -0.143,-0.137 -0.321,-0.246 -0.536,-0.328 -0.248,-0.095 -0.46,-0.048 -0.637,0.138 -0.096,0.102 -0.13,0.21 -0.103,0.325 0.03,0.129 0.043,0.23 0.038,0.303 -0.015,0.195 -0.013,0.389 0.004,0.581 0.014,0.166 0.054,0.354 0.119,0.566 0.328,1.059 0.763,2.074 1.304,3.042 0.084,0.15 0.164,0.274 0.241,0.371 0.091,0.116 0.191,0.225 0.298,0.329 0.167,0.161 0.348,0.242 0.542,0.242 0.048,0 0.092,-0.024 0.118,-0.064 0.04,-0.065 0.076,-0.101 0.108,-0.111 0.027,-0.009 0.057,0.015 0.09,0.071 0.037,0.061 0.068,0.106 0.091,0.134 0.077,0.097 0.159,0.099 0.244,0.008 0.069,-0.074 0.125,-0.13 0.169,-0.167 0.01,-0.008 0.026,-0.004 0.03,0.009 l 1.14,3.421 c 0.009,0.026 -0.002,0.055 -0.027,0.07 -2.833,1.712 -5.659,3.428 -8.48,5.147 -0.153,0.093 -0.249,0.173 -0.288,0.242 -0.056,0.096 -0.057,0.2 -0.003,0.307 0.033,0.065 0.099,0.132 0.199,0.203 1.872,1.298 3.641,2.726 5.306,4.281 0.577,0.539 1.133,1.098 1.67,1.677 0.247,0.267 0.482,0.543 0.703,0.827 0.294,0.376 0.557,0.732 0.789,1.067 0.226,0.325 0.438,0.693 0.638,1.103 0.231,0.473 0.399,0.968 0.502,1.484 0.02,0.101 0.022,0.211 0.007,0.332 -0.022,0.17 -0.036,0.341 -0.043,0.512 0,0.018 0.003,0.036 0.012,0.051 0.044,0.076 0.089,0.124 0.135,0.142 0.088,0.037 0.095,0.086 0.024,0.149 -0.266,0.232 -0.555,0.398 -0.865,0.499 -0.45,0.144 -0.908,0.252 -1.374,0.32 -0.216,0.031 -0.575,0.072 -1.079,0.121 -0.786,0.077 -1.593,0.111 -2.421,0.102 -0.029,0 -0.056,-0.016 -0.072,-0.041 -3.96,-6.469 -7.899,-12.922 -11.816,-19.361 -0.038,-0.062 -0.083,-0.113 -0.134,-0.151 -0.05,-0.037 -0.111,-0.057 -0.186,-0.06 -0.219,-0.01 -0.361,0.096 -0.423,0.317 -0.022,0.076 -0.015,0.149 0.023,0.219 l 10.233,18.903 c 0.02,0.037 0.009,0.052 -0.032,0.048 -3.338,-0.379 -6.604,-1.001 -9.797,-1.867 -0.332,-0.09 -0.503,0.027 -0.515,0.351 -0.006,0.174 0.081,0.284 0.26,0.333 2.028,0.54 4.064,1.047 6.108,1.52 1.55,0.36 3.105,0.682 4.666,0.966 0.029,0.005 0.053,0.024 0.067,0.049 0.44,0.796 0.86,1.578 1.26,2.347 10e-4,0.002 0.037,0.077 0.106,0.225 0.227,0.482 0.615,0.686 1.163,0.615 0.271,-0.036 0.499,-0.183 0.682,-0.442 0.219,-0.308 0.279,-0.615 0.18,-0.92 -0.019,-0.062 -0.155,-0.303 -0.407,-0.723 -0.142,-0.238 -0.286,-0.474 -0.432,-0.712 -0.009,-0.017 -0.005,-0.023 0.014,-0.02 0.646,0.1 1.28,0.161 1.904,0.186 0.901,0.035 1.787,-0.059 2.659,-0.282 0.603,-0.156 1.139,-0.436 1.608,-0.843 0.31,-0.269 0.542,-0.593 0.696,-0.973 0.05,-0.121 0.083,-0.246 0.1,-0.374 0.011,-0.079 0.012,-0.207 0.003,-0.383 -0.018,-0.343 -0.023,-0.686 -0.013,-1.03 0.004,-0.133 -0.014,-0.262 -0.054,-0.389 -0.149,-0.474 -0.355,-0.923 -0.619,-1.344 -0.222,-0.356 -0.464,-0.698 -0.725,-1.027 -0.301,-0.378 -0.742,-0.845 -1.324,-1.404 -1.379,-1.323 -2.824,-2.571 -4.333,-3.744 -1.312,-1.019 -2.648,-2.005 -4.011,-2.957 -0.026,-0.018 -0.024,-0.058 0.003,-0.073 l 7.941,-4.815 c 0.01,-0.006 0.023,-0.001 0.026,0.011 l 0.145,0.748 c 0.007,0.04 -0.005,0.083 -0.034,0.118 l -0.289,0.356 c -0.021,0.026 -0.009,0.065 0.023,0.075 0.233,0.07 0.431,0.187 0.592,0.352 0.03,0.03 0.05,0.064 0.061,0.103 0.104,0.359 0.31,0.58 0.617,0.663 0.239,0.064 0.467,0.041 0.683,-0.07 0.237,-0.122 0.383,-0.326 0.44,-0.613 C -7.98,8.744 -7.999,8.564 -8.07,8.366 -8.111,8.25 -8.132,8.19 -8.133,8.188 -8.337,7.554 -8.543,6.913 -8.751,6.269 -8.755,6.255 -8.75,6.24 -8.739,6.232 -8.468,6.05 -8.194,5.868 -7.919,5.688 -7.771,5.592 -7.689,5.536 -7.674,5.521 -7.588,5.438 -7.553,5.339 -7.569,5.222 -7.587,5.096 -7.648,5.001 -7.754,4.938 -7.875,4.867 -8.005,4.878 -8.145,4.973 -8.412,5.153 -8.68,5.331 -8.95,5.508 -8.961,5.515 -8.977,5.509 -8.981,5.496 -9.361,4.27 -9.713,3.035 -10.038,1.793 c -0.173,-0.66 -0.265,-1.011 -0.275,-1.052 -0.267,-1.042 -0.485,-2.095 -0.655,-3.158 -0.02,-0.124 -0.029,-0.233 -0.028,-0.328 0,-0.056 0.016,-0.061 0.046,-0.013 0.752,1.197 1.47,2.404 2.154,3.62 0.027,0.05 0.045,0.104 0.053,0.16 0.037,0.276 0.084,0.552 0.142,0.831 0.059,0.28 0.104,0.456 0.134,0.526 0.081,0.189 0.212,0.325 0.392,0.407 0.228,0.105 0.464,0.11 0.707,0.018 0.256,-0.098 0.43,-0.291 0.52,-0.58 C -6.797,2.061 -6.8,1.896 -6.855,1.729 -6.866,1.697 -6.937,1.554 -7.068,1.298 -7.67,0.129 -8.092,-1.064 -8.335,-2.283 -8.378,-2.5 -8.428,-2.67 -8.486,-2.795 c -0.007,-0.017 -0.003,-0.021 0.013,-0.014 0.264,0.123 0.466,0.291 0.607,0.505 0.475,0.723 0.848,1.495 1.119,2.317 0.109,0.329 0.23,0.652 0.364,0.971 0.029,0.068 0.077,0.117 0.147,0.147 0.05,0.022 0.049,0.04 -0.006,0.052 -0.156,0.033 -0.154,0.092 0.007,0.176 0.016,0.009 0.025,0.025 0.025,0.042 -0.01,0.297 0.088,0.51 0.294,0.64 0.18,0.114 0.385,0.138 0.612,0.071 0.293,-0.085 0.476,-0.296 0.55,-0.632 0.059,-0.27 0.043,-0.565 -0.049,-0.883 -0.143,-0.5 -0.239,-0.849 -0.287,-1.047 -0.039,-0.162 -0.087,-0.311 -0.143,-0.446 -0.001,-0.002 -0.035,-0.059 -0.1,-0.169 -0.044,-0.075 -0.063,-0.159 -0.056,-0.251 0.004,-0.063 0.009,-0.125 0.013,-0.188 0,-0.012 0.014,-0.02 0.025,-0.015 0.048,0.023 0.096,0.046 0.143,0.071 0.003,10e-4 0.047,0.021 0.131,0.059 0.09,0.041 0.165,0.102 0.226,0.184 0.63,0.838 1.148,1.755 1.552,2.75 0.049,0.118 0.08,0.228 0.094,0.329"
       style="fill:#00e5ff;fill-opacity:1;fill-rule:nonzero;stroke:none;stroke-width:0.99975002;stroke-dasharray:none"
       transform="matrix(1.3333333,0,0,-1.3333333,44.525333,52.190133)" />
    <path
       id="path2"
       d="M 0,0 C 0.1,0.083 0.172,0.168 0.215,0.253 0.457,0.73 0.648,1.227 0.789,1.743 0.802,1.791 0.794,1.794 0.766,1.754 0.265,1.043 -0.192,0.304 -0.607,-0.462 c -0.033,-0.06 -0.022,-0.069 0.031,-0.026 0.124,0.099 0.249,0.206 0.377,0.321 C -0.196,-0.164 -0.13,-0.108 0,0 m 3.892,-0.55 c 0.047,0.01 0.089,0.036 0.126,0.078 0.06,0.073 0.09,0.109 0.091,0.11 0.5,0.486 0.849,1.064 1.047,1.733 C 5.199,1.52 5.223,1.602 5.227,1.619 5.239,1.708 5.229,1.796 5.193,1.883 5.114,2.078 5.039,2.273 4.969,2.472 4.968,2.475 4.953,2.523 4.926,2.619 4.891,2.734 4.83,2.834 4.745,2.919 4.731,2.933 4.723,2.931 4.719,2.912 4.711,2.864 4.714,2.818 4.729,2.772 4.735,2.755 4.735,2.737 4.729,2.723 4.699,2.653 4.65,2.566 4.58,2.459 4.291,2.021 4.066,1.539 3.904,1.015 3.804,0.687 3.746,0.438 3.73,0.267 3.708,0.009 3.74,-0.251 3.826,-0.511 3.835,-0.538 3.863,-0.556 3.892,-0.55 M -6.861,2.474 C -7.178,1.979 -7.418,1.452 -7.581,0.89 -7.667,0.589 -7.716,0.36 -7.727,0.202 c -0.016,-0.239 0.018,-0.475 0.102,-0.709 0.018,-0.047 0.077,-0.061 0.113,-0.027 0.648,0.596 1.081,1.303 1.302,2.121 0.006,0.024 0.017,0.052 0.032,0.083 0.013,0.027 0.025,0.056 0.033,0.085 0.004,0.016 0.004,0.033 -0.001,0.052 C -6.274,2.197 -6.31,2.602 -6.255,3.02 -6.251,3.046 -6.261,3.052 -6.284,3.038 -6.399,2.967 -6.507,2.885 -6.608,2.789 -6.694,2.708 -6.778,2.603 -6.861,2.474 m 5.983,-3.446 c -0.068,-0.009 -0.114,-0.037 -0.139,-0.082 -0.216,-0.391 -0.435,-0.848 -0.655,-1.373 -0.05,-0.118 -0.096,-0.199 -0.138,-0.242 -0.071,-0.073 -0.16,-0.115 -0.265,-0.125 -0.097,-0.01 -0.179,0.017 -0.249,0.079 -0.073,0.066 -0.117,0.15 -0.132,0.25 -0.016,0.111 -0.018,0.24 -0.006,0.39 0.007,0.102 0.029,0.229 0.065,0.383 0.19,0.807 0.371,1.657 0.541,2.549 0.004,0.026 0.008,0.05 0.01,0.076 0.005,0.046 -0.012,0.062 -0.051,0.05 0.268,1.215 0.565,2.424 0.894,3.625 0.017,0.06 0.006,0.065 -0.032,0.015 C -1.259,4.324 -1.466,4.013 -1.655,3.688 -1.85,3.355 -2.058,3.029 -2.279,2.713 -2.561,2.31 -2.718,2.085 -2.753,2.037 -2.909,1.825 -3.084,1.613 -3.28,1.4 -3.526,1.134 -3.794,0.923 -4.084,0.768 -4.445,0.574 -4.831,0.546 -5.241,0.681 -5.269,0.689 -5.298,0.677 -5.311,0.651 -5.644,-0.018 -6.082,-0.584 -6.626,-1.05 -6.768,-1.171 -7.023,-1.313 -7.393,-1.475 -7.453,-1.501 -7.5,-1.507 -7.535,-1.491 c -0.043,0.018 -0.071,0.056 -0.085,0.116 -0.004,0.016 -0.016,0.027 -0.031,0.028 -0.457,0.043 -0.769,0.274 -0.937,0.691 -0.131,0.324 -0.174,0.67 -0.132,1.038 0.102,0.874 0.356,1.776 0.763,2.709 0.289,0.66 0.603,1.21 0.943,1.648 0.431,0.556 0.987,0.803 1.669,0.741 0.166,-0.014 0.31,-0.062 0.431,-0.143 0.32,-0.216 0.47,-0.529 0.449,-0.941 C -4.471,4.287 -4.463,4.195 -4.442,4.118 -4.415,4.013 -4.386,3.907 -4.356,3.803 -4.324,3.686 -4.313,3.587 -4.322,3.506 -4.333,3.423 -4.353,3.324 -4.383,3.209 -4.494,2.792 -4.61,2.376 -4.733,1.963 -4.734,1.959 -4.751,1.916 -4.785,1.834 -4.822,1.738 -4.793,1.68 -4.697,1.658 c 0.048,-0.012 0.102,-0.005 0.163,0.019 0.173,0.067 0.329,0.165 0.467,0.293 0.441,0.41 0.782,0.851 1.025,1.324 0.079,0.155 0.146,0.359 0.199,0.61 0,0.003 0.008,0.028 0.023,0.075 0.015,0.048 0.013,0.106 -0.008,0.17 -0.009,0.03 -0.006,0.062 0.007,0.09 l 2.977,6.123 c 0.038,0.078 0.1,0.128 0.186,0.148 0.099,0.023 0.179,0.07 0.239,0.141 0.071,0.087 0.158,0.157 0.259,0.208 0.2,0.103 0.41,0.182 0.628,0.238 0.091,0.022 0.18,0.032 0.272,0.028 C 1.825,11.122 1.914,11.103 2.004,11.068 2.322,10.948 2.527,10.729 2.619,10.41 2.658,10.273 2.665,10.133 2.639,9.988 2.614,9.858 2.572,9.722 2.514,9.576 1.834,7.922 1.188,6.256 0.575,4.576 0.549,4.504 0.56,4.497 0.609,4.557 0.813,4.803 1.073,4.959 1.387,5.024 1.494,5.047 1.572,5.033 1.621,4.983 1.686,4.919 1.759,4.907 1.841,4.948 1.99,5.023 2.127,5.063 2.255,5.068 2.272,5.069 2.29,5.064 2.305,5.055 2.607,4.866 2.799,4.595 2.879,4.241 2.895,4.173 2.927,4.092 2.975,3.997 2.977,3.995 2.992,3.967 3.026,3.911 3.088,3.808 3.088,3.706 3.025,3.606 2.983,3.539 2.951,3.479 2.928,3.427 2.907,3.381 2.895,3.315 2.889,3.229 2.881,3.081 2.859,2.934 2.825,2.787 2.806,2.706 2.824,2.696 2.881,2.758 3.13,3.026 3.387,3.296 3.65,3.565 3.735,3.653 3.796,3.733 3.832,3.808 4.093,4.349 4.406,4.776 4.77,5.093 5.06,5.345 5.4,5.479 5.793,5.499 6.12,5.515 6.391,5.445 6.603,5.29 6.861,5.102 6.99,4.82 6.99,4.448 6.988,4.235 7.021,4.05 7.088,3.891 7.142,3.763 7.17,3.672 7.174,3.62 7.18,3.506 7.162,3.394 7.12,3.282 7.082,3.185 7.045,3.086 7.01,2.987 6.977,2.899 6.947,2.799 6.921,2.686 6.855,2.408 6.775,2.134 6.682,1.864 6.66,1.803 6.654,1.755 6.665,1.721 6.686,1.656 6.741,1.636 6.833,1.658 7.044,1.711 7.236,1.821 7.411,1.989 7.764,2.33 8.043,2.674 8.252,3.022 8.402,3.274 8.593,3.638 8.822,4.114 8.824,4.116 8.849,4.16 8.898,4.246 8.93,4.304 8.961,4.377 8.992,4.469 9.04,4.613 9.088,4.758 9.137,4.902 9.172,5.011 9.225,5.154 9.293,5.332 9.432,5.689 9.548,6.054 9.644,6.426 9.731,6.767 9.823,7.101 9.92,7.427 9.928,7.453 9.906,7.478 9.879,7.475 8.49,7.307 7.107,7.156 5.73,7.024 5.641,7.016 5.482,7.006 5.256,6.997 5.135,6.992 5.051,7.026 5.006,7.101 4.911,7.254 4.892,7.417 4.946,7.59 c 0.023,0.072 0.072,0.114 0.146,0.126 0.109,0.018 0.22,0.037 0.328,0.055 1.594,0.265 3.192,0.514 4.795,0.747 0.02,0.003 0.037,0.016 0.043,0.036 0.183,0.523 0.375,1.036 0.576,1.538 0.059,0.142 0.149,0.33 0.275,0.563 0.156,0.285 0.389,0.512 0.7,0.679 0.042,0.022 0.08,0.05 0.113,0.083 0.108,0.106 0.223,0.124 0.344,0.054 0.17,-0.099 0.328,-0.212 0.476,-0.34 0.394,-0.34 0.521,-0.769 0.381,-1.287 C 13.047,9.566 12.955,9.295 12.847,9.028 12.832,8.991 12.844,8.977 12.883,8.983 l 1.189,0.212 c 0.022,0.003 0.039,0.017 0.05,0.035 0.105,0.186 0.239,0.33 0.404,0.43 0.167,0.102 0.349,0.151 0.547,0.146 0.253,-0.005 0.477,-0.102 0.673,-0.288 0.015,-0.015 0.036,-0.021 0.057,-0.017 2.961,0.534 5.911,1.061 8.847,1.58 0.367,0.065 0.578,0.098 0.633,0.098 0.238,0.002 0.447,-0.072 0.629,-0.218 0.175,-0.144 0.291,-0.319 0.346,-0.528 0.058,-0.216 0.04,-0.439 -0.054,-0.667 C 26.115,9.548 25.979,9.386 25.793,9.28 25.681,9.216 25.492,9.169 25.227,9.142 22.125,8.813 19.008,8.476 15.877,8.132 15.855,8.13 15.836,8.116 15.826,8.098 15.725,7.91 15.626,7.721 15.528,7.529 15.467,7.407 15.37,7.31 15.24,7.238 15.133,7.178 15.005,7.145 14.858,7.139 14.354,7.118 14.052,7.375 13.951,7.91 13.949,7.926 13.936,7.936 13.92,7.934 L 12.287,7.747 C 12.271,7.744 12.256,7.734 12.246,7.72 12.057,7.381 11.869,7.042 11.684,6.701 11.563,6.479 11.459,6.25 11.374,6.014 10.838,4.529 10.295,2.907 9.746,1.149 9.369,-0.056 9.078,-1.23 8.874,-2.376 8.873,-2.378 8.855,-2.511 8.818,-2.773 8.8,-2.904 8.772,-3.036 8.736,-3.169 8.729,-3.196 8.716,-3.22 8.696,-3.239 8.595,-3.341 8.579,-3.385 8.648,-3.372 c 0.108,0.019 0.21,0.052 0.307,0.099 0.08,0.039 0.166,0.101 0.256,0.187 0.182,0.174 0.35,0.36 0.504,0.559 0.406,0.52 0.78,1.062 1.121,1.626 0.127,0.21 0.31,0.522 0.549,0.936 0.415,0.72 0.797,1.457 1.148,2.21 0.051,0.111 0.084,0.228 0.098,0.349 0.019,0.164 0.036,0.328 0.053,0.492 0.017,0.186 0.022,0.344 0.013,0.472 -0.009,0.155 -0.029,0.311 -0.06,0.47 -0.016,0.082 -0.005,0.16 0.033,0.234 0.295,0.573 0.787,0.798 1.476,0.672 0.059,-0.011 0.127,-0.038 0.204,-0.082 0.062,-0.036 0.121,-0.079 0.173,-0.13 0.358,-0.342 0.422,-0.765 0.194,-1.268 -0.549,-1.211 -0.971,-2.464 -1.262,-3.762 -0.021,-0.089 -0.003,-0.098 0.055,-0.025 0.732,0.942 1.447,1.915 2.144,2.918 0.074,0.105 0.126,0.197 0.159,0.275 0.266,0.645 0.599,1.254 0.998,1.827 0.236,0.338 0.514,0.64 0.833,0.903 0.229,0.189 0.461,0.319 0.698,0.389 0.172,0.05 0.344,0.042 0.513,-0.025 0.1,-0.039 0.18,-0.058 0.24,-0.06 0.085,-0.001 0.169,0.003 0.252,0.013 C 19.6,5.938 19.805,5.88 19.963,5.733 20.106,5.6 20.181,5.437 20.186,5.243 20.19,5.05 20.115,4.868 19.961,4.699 19.845,4.572 19.713,4.51 19.563,4.511 19.279,4.512 18.994,4.513 18.709,4.513 18.691,4.513 18.678,4.502 18.672,4.487 18.625,4.346 18.664,4.258 18.787,4.224 18.804,4.219 18.805,4.213 18.789,4.207 18.633,4.141 18.504,4.064 18.399,3.979 18.104,3.738 17.826,3.445 17.568,3.102 17.201,2.61 16.897,2.085 16.656,1.524 16.51,1.182 16.407,0.901 16.35,0.685 16.269,0.381 16.236,0.082 16.251,-0.212 c 0.005,-0.099 0.046,-0.204 0.12,-0.316 0.01,-0.014 0.027,-0.02 0.043,-0.015 0.206,0.06 0.399,0.149 0.58,0.269 0.328,0.216 0.631,0.465 0.908,0.746 0.85,0.861 1.586,1.741 2.207,2.639 0.08,0.116 0.278,0.408 0.593,0.876 0.104,0.154 0.195,0.251 0.276,0.291 0.14,0.072 0.288,0.058 0.442,-0.041 C 21.596,4.126 21.672,3.98 21.649,3.804 21.637,3.705 21.57,3.575 21.451,3.415 20.875,2.637 20.28,1.873 19.668,1.123 19.303,0.676 18.918,0.245 18.516,-0.169 c -0.291,-0.299 -0.6,-0.579 -0.926,-0.839 -0.249,-0.198 -0.54,-0.345 -0.874,-0.442 -0.204,-0.061 -0.4,-0.066 -0.585,-0.016 -0.376,0.103 -0.649,0.333 -0.819,0.695 -0.09,0.189 -0.162,0.362 -0.215,0.517 -0.007,0.023 -0.036,0.078 -0.089,0.17 -0.04,0.069 -0.053,0.148 -0.037,0.239 0.011,0.063 0.002,0.081 -0.026,0.058 C 14.938,0.206 14.93,0.195 14.922,0.182 14.635,-0.315 14.255,-0.873 13.783,-1.491 13.602,-1.73 13.461,-1.899 13.365,-1.998 13.352,-2.011 13.344,-2.027 13.341,-2.044 l -0.042,-0.234 c -0.003,-0.018 -0.018,-0.03 -0.031,-0.027 -0.022,0.006 -0.037,0.024 -0.041,0.054 -0.006,0.029 -0.01,0.049 -0.016,0.059 -0.035,0.071 -0.061,0.056 -0.078,-0.045 -0.02,-0.11 -0.071,-0.128 -0.156,-0.055 -0.387,0.331 -0.626,0.749 -0.717,1.252 -0.028,0.155 -0.039,0.296 -0.032,0.421 0.002,0.052 0.022,0.19 0.057,0.414 0.024,0.141 0.051,0.279 0.085,0.416 0.011,0.042 0.006,0.061 -0.014,0.059 C 12.344,0.269 12.329,0.255 12.318,0.235 11.738,-0.85 11.095,-1.896 10.387,-2.903 10.15,-3.241 9.87,-3.563 9.549,-3.866 9.331,-4.072 9.082,-4.193 8.801,-4.231 8.643,-4.252 8.51,-4.234 8.4,-4.177 8.273,-4.111 8.176,-4.007 8.105,-3.863 8.033,-3.715 7.986,-3.609 7.966,-3.546 7.9,-3.35 7.78,-3.201 7.604,-3.1 c -0.016,0.009 -0.027,0.024 -0.03,0.039 -0.01,0.045 -0.014,0.09 -0.014,0.135 0,0.011 -10e-4,0.055 -0.004,0.134 -0.004,0.114 0.044,0.202 0.143,0.263 0.016,0.009 0.028,0.022 0.034,0.038 0.066,0.146 0.135,0.291 0.21,0.432 0.045,0.085 0.073,0.171 0.083,0.261 C 8.164,-0.59 8.352,0.61 8.592,1.804 8.605,1.874 8.589,1.883 8.541,1.831 8.471,1.756 8.4,1.675 8.332,1.586 8.016,1.186 7.665,0.897 7.281,0.722 6.925,0.559 6.561,0.548 6.188,0.69 6.172,0.697 6.152,0.689 6.144,0.672 5.879,0.135 5.539,-0.347 5.125,-0.771 5.012,-0.888 4.9,-0.986 4.795,-1.067 4.658,-1.169 4.531,-1.245 4.414,-1.298 4.275,-1.358 4.141,-1.422 4.006,-1.489 3.965,-1.511 3.934,-1.517 3.914,-1.509 c -0.028,0.012 -0.049,0.043 -0.06,0.095 -0.01,0.041 -0.045,0.071 -0.088,0.075 -0.426,0.035 -0.728,0.257 -0.903,0.664 -0.09,0.209 -0.138,0.426 -0.145,0.654 -0.012,0.364 0.016,0.698 0.083,1 0.031,0.14 0.051,0.244 0.058,0.313 C 2.862,1.311 2.856,1.313 2.843,1.3 2.631,1.101 2.427,0.893 2.23,0.676 2.127,0.563 2.025,0.42 1.922,0.248 1.805,0.05 1.679,-0.144 1.547,-0.332 1.297,-0.687 0.998,-0.971 0.65,-1.186 c -0.308,-0.19 -0.648,-0.287 -1.019,-0.29 -0.085,-0.001 -0.157,0.022 -0.214,0.07 -0.133,0.109 -0.214,0.253 -0.243,0.43 -0.003,0.02 -0.017,0.034 -0.03,0.029 -0.01,-0.003 -0.018,-0.012 -0.022,-0.025"
       style="fill:#00e5ff;fill-opacity:1;fill-rule:nonzero;stroke:none;stroke-width:0.99975002;stroke-dasharray:none"
       transform="matrix(1.3333333,0,0,-1.3333333,38.9264,37.7344)" />
  </g>
</svg>
